<?xml version="1.0" encoding="UTF-8" standalone="no"?>
<!DOCTYPE svg PUBLIC "-//W3C//DTD SVG 1.1//EN"
 "http://www.w3.org/Graphics/SVG/1.1/DTD/svg11.dtd">
<!-- Generated by graphviz version 2.43.0 (0)
 -->
<!-- Title: G Pages: 1 -->
<svg width="1664pt" height="303pt"
 viewBox="0.00 0.00 1664.00 303.00" xmlns="http://www.w3.org/2000/svg" xmlns:xlink="http://www.w3.org/1999/xlink">
<g id="graph0" class="graph" transform="scale(1 1) rotate(0) translate(4 299)">
<title>G</title>
<polygon fill="transparent" stroke="transparent" points="-4,4 -4,-299 1660,-299 1660,4 -4,4"/>
<!-- data.aws_iam_policy_document.s3_policy -->
<g id="node1" class="node">
<title>data.aws_iam_policy_document.s3_policy</title>
<polygon fill="#78909c" stroke="black" points="486,-187 269,-187 269,-151 486,-151 486,-187"/>
<text text-anchor="middle" x="377.5" y="-166.2" font-family="Arial" font-size="11.00">data.aws_iam_policy_document.s3_policy</text>
</g>
<!-- aws_cloudfront_distribution.s3_distribution -->
<g id="node5" class="node">
<title>aws_cloudfront_distribution.s3_distribution</title>
<polygon fill="#78909c" stroke="black" points="818.5,-160 599.5,-160 599.5,-124 818.5,-124 818.5,-160"/>
<text text-anchor="middle" x="709" y="-139.2" font-family="Arial" font-size="11.00">aws_cloudfront_distribution.s3_distribution</text>
</g>
<!-- data.aws_iam_policy_document.s3_policy&#45;&gt;aws_cloudfront_distribution.s3_distribution -->
<g id="edge1" class="edge">
<title>data.aws_iam_policy_document.s3_policy&#45;&gt;aws_cloudfront_distribution.s3_distribution</title>
<path fill="none" stroke="#666666" stroke-width="1.5" d="M486.05,-155.5C486.05,-155.5 589.36,-155.5 589.36,-155.5"/>
<polygon fill="#666666" stroke="#666666" stroke-width="1.5" points="589.36,-159 599.36,-155.5 589.36,-152 589.36,-159"/>
</g>
<!-- data.aws_route53_zone.selected_zone -->
<g id="node2" class="node">
<title>data.aws_route53_zone.selected_zone</title>
<polygon fill="#78909c" stroke="black" points="1656,-295 1452,-295 1452,-259 1656,-259 1656,-295"/>
<text text-anchor="middle" x="1554" y="-274.2" font-family="Arial" font-size="11.00">data.aws_route53_zone.selected_zone</text>
</g>
<!-- aws_acm_certificate.app_certificate -->
<g id="node3" class="node">
<title>aws_acm_certificate.app_certificate</title>
<polygon fill="#78909c" stroke="black" points="1647.5,-241 1460.5,-241 1460.5,-205 1647.5,-205 1647.5,-241"/>
<text text-anchor="middle" x="1554" y="-220.2" font-family="Arial" font-size="11.00">aws_acm_certificate.app_certificate</text>
</g>
<!-- aws_acm_certificate_validation.cert_validation -->
<g id="node4" class="node">
<title>aws_acm_certificate_validation.cert_validation</title>
<polygon fill="#78909c" stroke="black" points="1169,-268 932,-268 932,-232 1169,-232 1169,-268"/>
<text text-anchor="middle" x="1050.5" y="-247.2" font-family="Arial" font-size="11.00">aws_acm_certificate_validation.cert_validation</text>
</g>
<!-- aws_route53_record.cert_validation_dns -->
<g id="node8" class="node">
<title>aws_route53_record.cert_validation_dns</title>
<polygon fill="#78909c" stroke="black" points="1416,-268 1205,-268 1205,-232 1416,-232 1416,-268"/>
<text text-anchor="middle" x="1310.5" y="-247.2" font-family="Arial" font-size="11.00">aws_route53_record.cert_validation_dns</text>
</g>
<!-- aws_acm_certificate_validation.cert_validation&#45;&gt;aws_route53_record.cert_validation_dns -->
<g id="edge2" class="edge">
<title>aws_acm_certificate_validation.cert_validation&#45;&gt;aws_route53_record.cert_validation_dns</title>
<path fill="none" stroke="#666666" stroke-width="1.5" d="M1169.09,-250C1169.09,-250 1194.83,-250 1194.83,-250"/>
<polygon fill="#666666" stroke="#666666" stroke-width="1.5" points="1194.83,-253.5 1204.83,-250 1194.83,-246.5 1194.83,-253.5"/>
</g>
<!-- aws_cloudfront_distribution.s3_distribution&#45;&gt;aws_acm_certificate_validation.cert_validation -->
<g id="edge3" class="edge">
<title>aws_cloudfront_distribution.s3_distribution&#45;&gt;aws_acm_certificate_validation.cert_validation</title>
<path fill="none" stroke="#666666" stroke-width="1.5" d="M709,-160.32C709,-191.13 709,-250 709,-250 709,-250 921.54,-250 921.54,-250"/>
<polygon fill="#666666" stroke="#666666" stroke-width="1.5" points="921.54,-253.5 931.54,-250 921.54,-246.5 921.54,-253.5"/>
</g>
<!-- aws_cloudfront_origin_access_control.default -->
<g id="node6" class="node">
<title>aws_cloudfront_origin_access_control.default</title>
<polygon fill="#78909c" stroke="black" points="1167.5,-214 933.5,-214 933.5,-178 1167.5,-178 1167.5,-214"/>
<text text-anchor="middle" x="1050.5" y="-193.2" font-family="Arial" font-size="11.00">aws_cloudfront_origin_access_control.default</text>
</g>
<!-- aws_cloudfront_distribution.s3_distribution&#45;&gt;aws_cloudfront_origin_access_control.default -->
<g id="edge4" class="edge">
<title>aws_cloudfront_distribution.s3_distribution&#45;&gt;aws_cloudfront_origin_access_control.default</title>
<path fill="none" stroke="#666666" stroke-width="1.5" d="M818.68,-152.8C888.16,-152.8 965,-152.8 965,-152.8 965,-152.8 965,-167.93 965,-167.93"/>
<polygon fill="#666666" stroke="#666666" stroke-width="1.5" points="961.5,-167.93 965,-177.93 968.5,-167.93 961.5,-167.93"/>
</g>
<!-- aws_s3_bucket.cloudfront_logs -->
<g id="node9" class="node">
<title>aws_s3_bucket.cloudfront_logs</title>
<path fill="#ff9900" stroke="black" d="M1095,-40C1095,-42.21 1075.05,-44 1050.5,-44 1025.95,-44 1006,-42.21 1006,-40 1006,-40 1006,-4 1006,-4 1006,-1.79 1025.95,0 1050.5,0 1075.05,0 1095,-1.79 1095,-4 1095,-4 1095,-40 1095,-40"/>
<path fill="none" stroke="black" d="M1095,-40C1095,-37.79 1075.05,-36 1050.5,-36 1025.95,-36 1006,-37.79 1006,-40"/>
<text text-anchor="middle" x="1050.5" y="-25.2" font-family="Arial" font-size="11.00">S3 Bucket</text>
<text text-anchor="middle" x="1050.5" y="-13.2" font-family="Arial" font-size="11.00">cloudfront_logs</text>
</g>
<!-- aws_cloudfront_distribution.s3_distribution&#45;&gt;aws_s3_bucket.cloudfront_logs -->
<g id="edge5" class="edge">
<title>aws_cloudfront_distribution.s3_distribution&#45;&gt;aws_s3_bucket.cloudfront_logs</title>
<path fill="none" stroke="#666666" stroke-width="1.5" d="M818.59,-131.2C879.85,-131.2 944,-131.2 944,-131.2 944,-131.2 944,-28 944,-28 944,-28 995.95,-28 995.95,-28"/>
<polygon fill="#666666" stroke="#666666" stroke-width="1.5" points="995.95,-31.5 1005.95,-28 995.95,-24.5 995.95,-31.5"/>
</g>
<!-- aws_s3_bucket.website_assets -->
<g id="node10" class="node">
<title>aws_s3_bucket.website_assets</title>
<path fill="#ff9900" stroke="black" d="M1095.5,-102C1095.5,-104.21 1075.33,-106 1050.5,-106 1025.67,-106 1005.5,-104.21 1005.5,-102 1005.5,-102 1005.5,-66 1005.5,-66 1005.5,-63.79 1025.67,-62 1050.5,-62 1075.33,-62 1095.5,-63.79 1095.5,-66 1095.5,-66 1095.5,-102 1095.5,-102"/>
<path fill="none" stroke="black" d="M1095.5,-102C1095.5,-99.79 1075.33,-98 1050.5,-98 1025.67,-98 1005.5,-99.79 1005.5,-102"/>
<text text-anchor="middle" x="1050.5" y="-87.2" font-family="Arial" font-size="11.00">S3 Bucket</text>
<text text-anchor="middle" x="1050.5" y="-75.2" font-family="Arial" font-size="11.00">website_assets</text>
</g>
<!-- aws_cloudfront_distribution.s3_distribution&#45;&gt;aws_s3_bucket.website_assets -->
<g id="edge6" class="edge">
<title>aws_cloudfront_distribution.s3_distribution&#45;&gt;aws_s3_bucket.website_assets</title>
<path fill="none" stroke="#666666" stroke-width="1.5" d="M818.6,-138.4C883.83,-138.4 954,-138.4 954,-138.4 954,-138.4 954,-90 954,-90 954,-90 995.36,-90 995.36,-90"/>
<polygon fill="#666666" stroke="#666666" stroke-width="1.5" points="995.36,-93.5 1005.36,-90 995.36,-86.5 995.36,-93.5"/>
</g>
<!-- aws_wafv2_web_acl.default -->
<g id="node14" class="node">
<title>aws_wafv2_web_acl.default</title>
<polygon fill="#78909c" stroke="black" points="1126.5,-160 974.5,-160 974.5,-124 1126.5,-124 1126.5,-160"/>
<text text-anchor="middle" x="1050.5" y="-139.2" font-family="Arial" font-size="11.00">aws_wafv2_web_acl.default</text>
</g>
<!-- aws_cloudfront_distribution.s3_distribution&#45;&gt;aws_wafv2_web_acl.default -->
<g id="edge7" class="edge">
<title>aws_cloudfront_distribution.s3_distribution&#45;&gt;aws_wafv2_web_acl.default</title>
<path fill="none" stroke="#666666" stroke-width="1.5" d="M818.93,-145.6C818.93,-145.6 964.27,-145.6 964.27,-145.6"/>
<polygon fill="#666666" stroke="#666666" stroke-width="1.5" points="964.27,-149.1 974.27,-145.6 964.27,-142.1 964.27,-149.1"/>
</g>
<!-- aws_route53_record.app_dns_record -->
<g id="node7" class="node">
<title>aws_route53_record.app_dns_record</title>
<polygon fill="#78909c" stroke="black" points="476,-133 279,-133 279,-97 476,-97 476,-133"/>
<text text-anchor="middle" x="377.5" y="-112.2" font-family="Arial" font-size="11.00">aws_route53_record.app_dns_record</text>
</g>
<!-- aws_route53_record.app_dns_record&#45;&gt;aws_cloudfront_distribution.s3_distribution -->
<g id="edge8" class="edge">
<title>aws_route53_record.app_dns_record&#45;&gt;aws_cloudfront_distribution.s3_distribution</title>
<path fill="none" stroke="#666666" stroke-width="1.5" d="M476.06,-128.5C476.06,-128.5 589.21,-128.5 589.21,-128.5"/>
<polygon fill="#666666" stroke="#666666" stroke-width="1.5" points="589.21,-132 599.21,-128.5 589.21,-125 589.21,-132"/>
</g>
<!-- aws_route53_record.cert_validation_dns&#45;&gt;data.aws_route53_zone.selected_zone -->
<g id="edge9" class="edge">
<title>aws_route53_record.cert_validation_dns&#45;&gt;data.aws_route53_zone.selected_zone</title>
<path fill="none" stroke="#666666" stroke-width="1.5" d="M1416.24,-263.5C1416.24,-263.5 1441.82,-263.5 1441.82,-263.5"/>
<polygon fill="#666666" stroke="#666666" stroke-width="1.5" points="1441.82,-267 1451.82,-263.5 1441.82,-260 1441.82,-267"/>
</g>
<!-- aws_route53_record.cert_validation_dns&#45;&gt;aws_acm_certificate.app_certificate -->
<g id="edge10" class="edge">
<title>aws_route53_record.cert_validation_dns&#45;&gt;aws_acm_certificate.app_certificate</title>
<path fill="none" stroke="#666666" stroke-width="1.5" d="M1416.24,-236.5C1416.24,-236.5 1450.21,-236.5 1450.21,-236.5"/>
<polygon fill="#666666" stroke="#666666" stroke-width="1.5" points="1450.21,-240 1460.21,-236.5 1450.21,-233 1450.21,-240"/>
</g>
<!-- random_id.bucket_suffix -->
<g id="node15" class="node">
<title>random_id.bucket_suffix</title>
<polygon fill="#78909c" stroke="black" points="1377,-71 1244,-71 1244,-35 1377,-35 1377,-71"/>
<text text-anchor="middle" x="1310.5" y="-50.2" font-family="Arial" font-size="11.00">random_id.bucket_suffix</text>
</g>
<!-- aws_s3_bucket.cloudfront_logs&#45;&gt;random_id.bucket_suffix -->
<g id="edge11" class="edge">
<title>aws_s3_bucket.cloudfront_logs&#45;&gt;random_id.bucket_suffix</title>
<path fill="none" stroke="#666666" stroke-width="1.5" d="M1095.2,-39.5C1095.2,-39.5 1233.98,-39.5 1233.98,-39.5"/>
<polygon fill="#666666" stroke="#666666" stroke-width="1.5" points="1233.98,-43 1243.98,-39.5 1233.98,-36 1233.98,-43"/>
</g>
<!-- aws_s3_bucket.website_assets&#45;&gt;random_id.bucket_suffix -->
<g id="edge12" class="edge">
<title>aws_s3_bucket.website_assets&#45;&gt;random_id.bucket_suffix</title>
<path fill="none" stroke="#666666" stroke-width="1.5" d="M1095.79,-66.5C1095.79,-66.5 1233.79,-66.5 1233.79,-66.5"/>
<polygon fill="#666666" stroke="#666666" stroke-width="1.5" points="1233.79,-70 1243.79,-66.5 1233.79,-63 1233.79,-70"/>
</g>
<!-- aws_s3_bucket_policy.website_assets_policy -->
<g id="node11" class="node">
<title>aws_s3_bucket_policy.website_assets_policy</title>
<polygon fill="#78909c" stroke="black" points="233,-187 0,-187 0,-151 233,-151 233,-187"/>
<text text-anchor="middle" x="116.5" y="-166.2" font-family="Arial" font-size="11.00">aws_s3_bucket_policy.website_assets_policy</text>
</g>
<!-- aws_s3_bucket_policy.website_assets_policy&#45;&gt;data.aws_iam_policy_document.s3_policy -->
<g id="edge13" class="edge">
<title>aws_s3_bucket_policy.website_assets_policy&#45;&gt;data.aws_iam_policy_document.s3_policy</title>
<path fill="none" stroke="#666666" stroke-width="1.5" d="M233.26,-169C233.26,-169 258.75,-169 258.75,-169"/>
<polygon fill="#666666" stroke="#666666" stroke-width="1.5" points="258.75,-172.5 268.75,-169 258.75,-165.5 258.75,-172.5"/>
</g>
<!-- aws_s3_bucket_public_access_block.cloudfront_logs_public_access_block -->
<g id="node12" class="node">
<title>aws_s3_bucket_public_access_block.cloudfront_logs_public_access_block</title>
<polygon fill="#78909c" stroke="black" points="896,-40 522,-40 522,-4 896,-4 896,-40"/>
<text text-anchor="middle" x="709" y="-19.2" font-family="Arial" font-size="11.00">aws_s3_bucket_public_access_block.cloudfront_logs_public_access_block</text>
</g>
<!-- aws_s3_bucket_public_access_block.cloudfront_logs_public_access_block&#45;&gt;aws_s3_bucket.cloudfront_logs -->
<g id="edge14" class="edge">
<title>aws_s3_bucket_public_access_block.cloudfront_logs_public_access_block&#45;&gt;aws_s3_bucket.cloudfront_logs</title>
<path fill="none" stroke="#666666" stroke-width="1.5" d="M896.24,-16C896.24,-16 995.85,-16 995.85,-16"/>
<polygon fill="#666666" stroke="#666666" stroke-width="1.5" points="995.85,-19.5 1005.85,-16 995.85,-12.5 995.85,-19.5"/>
</g>
<!-- aws_s3_bucket_public_access_block.website_assets_public_access_block -->
<g id="node13" class="node">
<title>aws_s3_bucket_public_access_block.website_assets_public_access_block</title>
<polygon fill="#78909c" stroke="black" points="896,-102 522,-102 522,-66 896,-66 896,-102"/>
<text text-anchor="middle" x="709" y="-81.2" font-family="Arial" font-size="11.00">aws_s3_bucket_public_access_block.website_assets_public_access_block</text>
</g>
<!-- aws_s3_bucket_public_access_block.website_assets_public_access_block&#45;&gt;aws_s3_bucket.website_assets -->
<g id="edge15" class="edge">
<title>aws_s3_bucket_public_access_block.website_assets_public_access_block&#45;&gt;aws_s3_bucket.website_assets</title>
<path fill="none" stroke="#666666" stroke-width="1.5" d="M896.24,-78C896.24,-78 995.19,-78 995.19,-78"/>
<polygon fill="#666666" stroke="#666666" stroke-width="1.5" points="995.19,-81.5 1005.19,-78 995.19,-74.5 995.19,-81.5"/>
</g>
</g>
</svg>
